#N canvas 195 103 188 167 12;
#X obj 11 49 oscparse;
#X obj 11 73 list trim;
#X obj 99 122 print p2;
#X obj 11 122 print value;
#X obj 153 48 bng 15 250 50 0 empty empty empty 17 7 0 10 -262144 -1
-1;
#X obj 11 21 netreceive -u -b 14010;
#X obj 11 97 route command;
#X connect 0 0 1 0;
#X connect 1 0 6 0;
#X connect 5 0 0 0;
#X connect 5 0 4 0;
#X connect 6 0 3 0;
#X connect 6 1 2 0;
